<svg 
          width="30.16901397705078" 
          height="30" fill="none" 
          xmlns="http://www.w3.org/2000/svg">
          <path d="M 14.68452563874148 7.782787473261779 L 5.0285664373113255 17.95244939750352 L 5.0285664373113255 28.928451865343057 C 5.0285664373113255 29.212644110734352 5.116851799840096 29.485197383604007 5.2740004571290005 29.68615163505951 C 5.431149114417905 29.887105886515013 5.644288274049898 30 5.8665300502337185 30 L 11.735417576375832 29.9805776177909 C 11.95693255572319 29.97916128595159 12.16899684119657 29.86564171628484 12.325240467479963 29.66484076698687 C 12.481484093763356 29.4640398176889 12.569194044325183 29.192295848001688 12.569191275336289 28.909029483133956 L 12.569191275336289 22.499163057401386 C 12.569191275336289 22.21497081201009 12.65747663786506 21.942417539140436 12.814625295153963 21.741463287684933 C 12.971773952442867 21.54050903622943 13.184913112074863 21.427614922744443 13.407154888258683 21.427614922744443 L 16.75901013909263 21.427614922744443 C 16.981251915276452 21.427614922744443 17.19439027576407 21.54050903622943 17.351538933052975 21.741463287684933 C 17.50868759034188 21.942417539140436 17.596973752015025 22.21497081201009 17.596973752015025 22.499163057401386 L 17.596973752015025 28.904343013344892 C 17.59662917814396 29.045342229643698 17.618048150673527 29.18504112398104 17.660005465506124 29.315434093546543 C 17.70196278033872 29.445827063112045 17.76363353222801 29.564349773649095 17.841479965212482 29.664207184067283 C 17.919326398196954 29.764064594485472 18.01181828190672 29.84329382721707 18.11365575327511 29.89735343557954 C 18.215493224643502 29.951413043942008 18.32467373400131 29.979239606874096 18.43493736493742 29.97923891839629 L 24.301729534526377 30 C 24.5239713107102 30 24.737111269486565 29.887105886515013 24.89425992677547 29.68615163505951 C 25.051408584064372 29.485197383604007 25.13969314744877 29.212644110734352 25.13969314744877 28.928451865343057 L 25.13969314744877 17.94508348510937 L 15.485829302571771 7.782787473261779 C 15.372335093036892 7.6658044346853 15.230950195377376 7.602011959592943 15.085176671512249 7.602011959592943 C 14.939403147647122 7.602011959592943 14.79801984827636 7.6658044346853 14.68452563874148 7.782787473261779 Z M 29.937035151087223 14.694943109022725 L 25.558674953909968 10.079918991314191 L 25.558674953909968 0.8036611009927086 C 25.558674953909968 0.5905169249328913 25.492461534493327 0.3861027327197753 25.374600038404992 0.2353870401363198 C 25.256738542316658 0.08467134755286432 25.096883570112723 0 24.930202244218172 0 L 21.997329598989793 0 C 21.830648273095242 0 21.670793300891308 0.08467134755286432 21.552931804802974 0.2353870401363198 C 21.43507030871464 0.3861027327197753 21.368856889297998 0.5905169249328913 21.368856889297998 0.8036611009927086 L 21.368856889297998 5.666480520459074 L 16.67992681167068 0.7333408057512434 C 16.22994864225468 0.2598364748883838 15.66530404337092 0.0009465422246217702 15.082558674537369 0.0009465422246227219 C 14.499813305703817 0.000946542224622246 13.935168706820054 0.2598364748883838 13.485190537404055 0.7333408057512434 L 0.22808254761317742 14.694943109022725 C 0.16444315350080946 14.7622053367856 0.11179162307742035 14.844842816103888 0.07313635719703875 14.938134715534215 C 0.03448109131665713 15.031426614964541 0.010579690358585084 15.133545124427 0.0027978323592363417 15.238653313372975 C -0.004984025640112402 15.34376150231895 0.0035061757112038947 15.449800457785802 0.027783321829091216 15.55071129561167 C 0.052060467946978536 15.651622133437538 0.09164876142011211 15.74542609656342 0.14428619131559042 15.82676541749095 L 1.4797907243839168 17.902890950296715 C 1.532284764053791 17.984513946480025 1.5968525579013446 18.05209605537746 1.6697978883760074 18.10176854112287 C 1.7427432188506702 18.151441026868277 1.8226336633621596 18.18222904417947 1.9048956749449815 18.19236885480773 C 1.9871576865278033 18.20250866543599 2.070175944665996 18.19180202522971 2.149197906540533 18.160861389361504 C 2.22821986841507 18.1299207534933 2.3016938516242225 18.07935345362473 2.3654136096928746 18.01205524352543 L 14.68452563874148 5.036946400111293 C 14.79801984827636 4.919963361534814 14.939403147647122 4.856169864534522 15.085176671512249 4.856169864534522 C 15.230950195377376 4.856169864534522 15.372335093036892 4.919963361534814 15.485829302571771 5.036946400111293 L 27.805467767977888 18.01205524352543 C 27.869076101595965 18.079365492977587 27.942431936303816 18.129988606583442 28.021345433059295 18.161033069894554 C 28.100258929814775 18.192077533205666 28.183182676643906 18.202935114403296 28.26537855278632 18.192984043384488 C 28.347574428928734 18.18303297236568 28.427432339523495 18.152468271876955 28.500387734222638 18.10303775077791 C 28.57334312892178 18.053607229678867 28.637965039827527 17.986279060911404 28.690564916180662 17.904900021296562 L 30.02606942427573 15.828774488490797 C 30.07865028349005 15.746966175690433 30.118071665046674 15.652676734442611 30.14206363212376 15.551324440372559 C 30.16605559920085 15.449972146302507 30.174145411855704 15.343555539968149 30.16587174136542 15.238191410986438 C 30.15759807087514 15.132827282004728 30.133121031746544 15.030593225092732 30.093849653647396 14.937364196951362 C 30.05457827554825 14.844135168809993 30.00128593435023 14.761749773421721 29.937035151087223 14.694943109022725 Z" fill="rgb(170.0000050663948,150.0000062584877,218.00000220537186)"/>
        </svg>